# Blender v2.93.0 OBJ File: ''
# www.blender.org
mtllib testModel.mtl
o Cube_Cube.001
v 1.155302 -2.477975 0.054912
v 0.126137 -0.889901 2.582686
v -1.496707 -1.736779 -1.490492
v -2.525873 -0.148705 1.037282
v 2.525873 0.148705 -1.037282
v 1.496707 1.736779 1.490492
v -0.126137 0.889901 -2.582686
v -1.155302 2.477975 -0.054912
vt 0.375000 0.000000
vt 0.625000 0.000000
vt 0.625000 0.250000
vt 0.375000 0.250000
vt 0.625000 0.500000
vt 0.375000 0.500000
vt 0.625000 0.750000
vt 0.375000 0.750000
vt 0.625000 1.000000
vt 0.375000 1.000000
vt 0.125000 0.500000
vt 0.125000 0.750000
vt 0.875000 0.500000
vt 0.875000 0.750000
vn -0.4340 -0.8318 0.3459
vn -0.8399 0.2347 -0.4894
vn 0.4340 0.8318 -0.3459
vn 0.8399 -0.2347 0.4894
vn 0.3259 -0.5029 -0.8005
vn -0.3259 0.5029 0.8005
usemtl None
s off
f 1/1/1 2/2/1 4/3/1 3/4/1
f 3/4/2 4/3/2 8/5/2 7/6/2
f 7/6/3 8/5/3 6/7/3 5/8/3
f 5/8/4 6/7/4 2/9/4 1/10/4
f 3/11/5 7/6/5 5/8/5 1/12/5
f 8/5/6 4/13/6 2/14/6 6/7/6
